<?xml version="1.0" encoding="UTF-8" standalone="no"?>
<svg
   xmlns:dc="http://purl.org/dc/elements/1.1/"
   xmlns:cc="http://creativecommons.org/ns#"
   xmlns:rdf="http://www.w3.org/1999/02/22-rdf-syntax-ns#"
   xmlns:svg="http://www.w3.org/2000/svg"
   xmlns="http://www.w3.org/2000/svg"
   version="1.1"
   x="0px"
   y="0px"
   viewBox="0 0 1000 1000"
   enable-background="new 0 0 1000 1000"
   xml:space="preserve"
   id="svg12"><defs
   id="defs16"><mask
     maskUnits="userSpaceOnUse"
     id="mask-powermask-path-effect880"><path
       id="mask-powermask-path-effect880_box"
       style="fill:#ffffff;fill-opacity:1"
       d="M -1,-1 H 1001 V 1001 H -1 Z" /><g
       id="g878"
       transform="matrix(0.43440558,-0.44299168,0.43440558,0.44299168,65.503728,570.75993)"
       style="stroke-width:0.999381;stroke-miterlimit:4;stroke-dasharray:none"><g
         transform="matrix(0.1,0,0,-0.1,0,502)"
         id="g876"
         style="stroke-width:9.99381;stroke-miterlimit:4;stroke-dasharray:none"><path
           d="m 7096.2,4894.3 c -254,-41.7 -460.4,-105.2 -678.8,-210.4 -275.8,-131 -476.3,-271.9 -690.6,-486.2 -516,-514 -774,-1224.5 -704.5,-1941 l 21.8,-236.2 -97.3,-111.1 c -51.6,-63.5 -649,-764.1 -1323.7,-1561.9 -676.7,-795.8 -1510.3,-1778.2 -1851.6,-2183.1 -359.2,-422.7 -641,-772 -664.8,-823.6 -53.6,-119.1 -53.6,-297.7 0,-416.8 21.8,-49.6 85.3,-138.9 140.9,-200.4 l 101.2,-111.1 -615.2,-613.2 c -656.9,-656.9 -676.8,-682.7 -605.3,-791.9 41.7,-63.5 121.1,-95.3 184.6,-75.4 25.8,9.9 323.5,291.7 660.9,629.1 l 613.3,613.2 115.1,-105.2 c 63.5,-57.6 152.8,-123 200.4,-142.9 117.1,-53.6 317.5,-51.6 426.7,2 45.7,23.8 1101.5,905 2347.8,1960.8 1244.2,1057.9 2278.2,1933.1 2296,1947 25.8,21.8 75.4,23.8 262,5.9 899,-81.4 1750.4,329.5 2270.4,1095.5 105.2,156.8 254,486.2 307.6,682.7 369.1,1383.3 -472.4,2756.6 -1873.5,3054.3 -202.4,41.8 -643,53.6 -843.4,19.9 z m 869.2,-377.1 c 603.3,-152.8 1101.5,-557.7 1373.4,-1113.4 127,-260 180.6,-440.6 212.4,-728.4 39.7,-351.3 -31.8,-758.1 -186.6,-1081.6 -59.5,-123 -71.4,-135 -131,-140.9 -101.2,-9.9 -478.3,69.5 -702.6,146.9 -262,91.3 -583.5,256 -803.8,410.8 -222.3,156.8 -575.5,510 -734.3,734.3 -283.8,404.9 -484.2,903 -549.7,1375.3 l -25.8,188.5 91.3,45.6 c 146.8,75.4 416.8,164.7 577.5,190.5 81.4,11.9 162.7,25.8 178.6,29.8 93.3,24 522,-11.7 700.6,-57.4 z M 6139.6,3864.3 c 83.3,-416.8 269.9,-861.3 523.9,-1244.4 115.1,-172.7 220.3,-295.7 430.7,-508.1 212.3,-210.4 335.4,-315.5 508.1,-430.6 391,-258 839.5,-446.5 1254.3,-522 101.2,-19.8 188.5,-37.7 192.5,-41.7 5.9,-4 -33.8,-51.6 -87.3,-105.2 C 8848.7,897.2 8818.9,893.2 8523.2,942.8 7818.6,1064 7141.8,1439.1 6677.4,1965 6244.7,2457.2 5953,3118.1 5901.4,3723.4 l -11.9,148.8 95.3,97.3 c 53.6,53.6 101.2,93.3 107.2,87.3 5.9,-4 25.8,-91.3 47.6,-192.5 z M 5689.1,3072.4 C 6030.4,1895.6 6985,972.7 8173.8,673 c 127,-31.7 232.2,-61.5 236.2,-65.5 13.9,-13.9 -275.9,-131 -422.7,-170.7 -222.3,-61.5 -668.8,-75.4 -909,-31.8 -1305.9,246.2 -2064,1613.6 -1575.8,2850 77.4,196.5 81.4,200.4 101.2,119.1 10,-37.7 47.7,-174.6 85.4,-301.7 z M 5181,1585.9 c 0,-35.7 160.8,-343.3 252.1,-482.3 125,-184.6 375.1,-446.5 569.6,-591.4 85.3,-63.5 256,-166.7 379.1,-228.2 L 6606,172.9 5421.2,-829.3 c -1819.9,-1544 -3102,-2627.6 -3173.4,-2689.1 -45.6,-35.7 -89.3,-53.6 -138.9,-53.6 -65.5,0 -95.3,25.8 -383,309.6 -170.7,170.7 -315.6,329.5 -319.5,353.3 -4,21.8 -4,61.5 2,87.3 13.9,53.6 3737,4449.5 3758.8,4435.6 7.9,-4 13.8,-15.9 13.8,-27.9 z"
           id="path872"
           style="stroke-width:9.99381;stroke-miterlimit:4;stroke-dasharray:none" /><path
           d="m 4754.3,2.2 c -21.8,-9.9 -91.3,-71.4 -152.8,-136.9 -97.2,-101.2 -115.1,-131 -115.1,-192.5 0,-95.3 71.5,-168.7 166.7,-168.7 53.6,0 91.3,19.8 180.6,101.2 180.6,166.7 208.4,258 111.2,357.2 -59.6,57.6 -115.2,69.5 -190.6,39.7 z"
           id="path874"
           style="stroke-width:9.99381;stroke-miterlimit:4;stroke-dasharray:none" /></g></g></mask><filter
     id="mask-powermask-path-effect880_inverse"
     style="color-interpolation-filters:sRGB"
     height="100"
     width="100"
     x="-50"
     y="-50"><feColorMatrix
       id="mask-powermask-path-effect880_primitive1"
       values="1"
       type="saturate"
       result="fbSourceGraphic" /><feColorMatrix
       id="mask-powermask-path-effect880_primitive2"
       values="-1 0 0 0 1 0 -1 0 0 1 0 0 -1 0 1 0 0 0 1 0 "
       in="fbSourceGraphic" /></filter></defs>
<metadata
   id="metadata2"> Svg Vector Icons : http://www.onlinewebfonts.com/icon <rdf:RDF><cc:Work
     rdf:about=""><dc:format>image/svg+xml</dc:format><dc:type
       rdf:resource="http://purl.org/dc/dcmitype/StillImage" /><dc:title></dc:title></cc:Work></rdf:RDF></metadata>
<path
   style="fill:#ffffff;fill-opacity:1;stroke-width:0"
   id="rect841"
   width="1000"
   height="1000"
   x="0"
   y="0"
   mask="url(#mask-powermask-path-effect880)"
   d="M 0,0 H 1000 V 1000 H 0 Z" />
</svg>
